# xmcd
#
# Track frame offsets:
#	150
#	15995
#	31621
#	44679
#	70024
#	86232
#	101837
#	114513
#	129352
#	143386
#	156901
#	171141
#	186605
#
# Disc length: 2706 seconds
#
# Revision: 0
# Processed by: cddbd v1.5.1PL0 Copyright (c) Steve Scherf et al.
# Submitted via: audiograbber 1.83.01
#
DISCID=a80a900d
DTITLE=Cowboy Up - Cowboy Up
DYEAR=1998
DGENRE=Country
TTITLE0=Toby Keith - Should've Been A Cowboy
TTITLE1=Kathy Mattea - Clown In Your Rodeo
TTITLE2=Vince Gill - Ridin' The Rodeo
TTITLE3=Ian Tyson - Old Cheyenne
TTITLE4=Ryan Reynolds - Cowboy Up
TTITLE5=Willie Nelson - Mamma's Don't Let Your Babies Grow Up To Be Cowboys
TTITLE6=Jack Ingram - Big Time
TTITLE7=Chris Ledoux - Cadillac Cowboy
TTITLE8=Cindy Church - Trying To Rope The Wind
TTITLE9=Scoot Mccoy - Cowboy Crazy
TTITLE10=Johnny Cash - Bull Rider
TTITLE11=Tracy Byrd - No Ordinary Man
TTITLE12=Emmylou Harris - The Sweetheart Of The Rodeo
EXTD=
EXTT0=
EXTT1=
EXTT2=
EXTT3=
EXTT4=
EXTT5=
EXTT6=
EXTT7=
EXTT8=
EXTT9=
EXTT10=
EXTT11=
EXTT12=
PLAYORDER=
